<svg id="iconfinder_1_Instagram_colored_svg_1_5296765" xmlns="http://www.w3.org/2000/svg" width="31.318" height="31.318" viewBox="0 0 31.318 31.318">
  <path id="Path_3" data-name="Path 3" d="M15.659,0C11.406,0,10.873.018,9.2.094A11.492,11.492,0,0,0,5.4.822,7.675,7.675,0,0,0,2.628,2.628,7.675,7.675,0,0,0,.822,5.4,11.492,11.492,0,0,0,.094,9.2C.018,10.873,0,11.406,0,15.659s.018,4.786.094,6.456a11.492,11.492,0,0,0,.728,3.8,7.676,7.676,0,0,0,1.806,2.774A7.676,7.676,0,0,0,5.4,30.5a11.494,11.494,0,0,0,3.8.728c1.67.076,2.2.094,6.456.094s4.786-.018,6.456-.094a11.493,11.493,0,0,0,3.8-.728,8.006,8.006,0,0,0,4.58-4.58,11.493,11.493,0,0,0,.728-3.8c.076-1.67.094-2.2.094-6.456S31.3,10.873,31.223,9.2A11.493,11.493,0,0,0,30.5,5.4a7.675,7.675,0,0,0-1.806-2.773A7.676,7.676,0,0,0,25.916.822a11.492,11.492,0,0,0-3.8-.728C20.445.018,19.911,0,15.659,0Zm0,2.821c4.181,0,4.676.016,6.327.091a8.666,8.666,0,0,1,2.908.539,4.852,4.852,0,0,1,1.8,1.171,4.851,4.851,0,0,1,1.171,1.8A8.664,8.664,0,0,1,28.4,9.331c.075,1.651.091,2.146.091,6.328s-.016,4.676-.091,6.327a8.664,8.664,0,0,1-.539,2.908,5.186,5.186,0,0,1-2.972,2.972,8.663,8.663,0,0,1-2.908.539c-1.651.075-2.146.091-6.327.091s-4.677-.016-6.328-.091a8.663,8.663,0,0,1-2.908-.539,4.852,4.852,0,0,1-1.8-1.171,4.851,4.851,0,0,1-1.171-1.8,8.664,8.664,0,0,1-.539-2.908c-.075-1.651-.091-2.146-.091-6.327s.016-4.676.091-6.328a8.664,8.664,0,0,1,.539-2.908,4.851,4.851,0,0,1,1.171-1.8,4.853,4.853,0,0,1,1.8-1.171,8.666,8.666,0,0,1,2.908-.539C10.982,2.837,11.478,2.821,15.659,2.821Z" transform="translate(0 0)"/>
  <path id="Path_4" data-name="Path 4" d="M132.581,137.8a5.22,5.22,0,1,1,5.22-5.22A5.22,5.22,0,0,1,132.581,137.8Zm0-13.261a8.041,8.041,0,1,0,8.041,8.041A8.041,8.041,0,0,0,132.581,124.54Z" transform="translate(-116.922 -116.922)"/>
  <path id="Path_5" data-name="Path 5" d="M365.69,90.506a1.879,1.879,0,1,1-1.879-1.879A1.879,1.879,0,0,1,365.69,90.506Z" transform="translate(-339.794 -83.206)"/>
</svg>
